HIERARCHY
ROOT root
{
	OFFSET	0	13.1	24.9
	CHANNELS 6  Xposition Yposition Zposition Xrotation Yrotation Zrotation
	JOINT spine_1
	{
		OFFSET	0	9.99999	0
		CHANNELS 3  Xrotation Yrotation Zrotation
		JOINT spine_2
		{
			OFFSET	0	112	-10
			CHANNELS 3  Xrotation Yrotation Zrotation
			JOINT spine_3
			{
				OFFSET	0	206.5	19.3
				CHANNELS 3  Xrotation Yrotation Zrotation
				JOINT spine_4
				{
					OFFSET	0	110.4	14.6
					CHANNELS 3  Xrotation Yrotation Zrotation
					JOINT neck_1
					{
						OFFSET	0	71.8	-50.3
						CHANNELS 3  Xrotation Yrotation Zrotation
						JOINT neck_2
						{
							OFFSET	0	86.2	-25.8
							CHANNELS 3  Xrotation Yrotation Zrotation
							JOINT head_ee
							{
								OFFSET	0	179.8	-8.7
								CHANNELS 3  Xrotation Yrotation Zrotation
								End Site
								{
									OFFSET	1	0	0
								}
							}
						}
					}
					JOINT left_clavicle
					{
						OFFSET	-43.2	22.4	-70.8
						CHANNELS 3  Xrotation Yrotation Zrotation
						JOINT left_shoulder
						{
							OFFSET	-93.9	-5.79999	48.7
							CHANNELS 3  Xrotation Yrotation Zrotation
							JOINT left_elbow
							{
								OFFSET	-291.4	-30.8	15.2
								CHANNELS 3  Xrotation Yrotation Zrotation
								JOINT left_lowarm_twist
								{
									OFFSET	-110.7	-3.89999	13.6
									CHANNELS 3  Xrotation Yrotation Zrotation
									JOINT left_hand
									{
										OFFSET	-110.7	-3.89999	13.6
										CHANNELS 3  Xrotation Yrotation Zrotation
										JOINT left_ee
										{
											OFFSET	-80.8	-5.10001	12.1
											CHANNELS 3  Xrotation Yrotation Zrotation
											End Site
											{
												OFFSET	1	0	0
											}
										}
									}
								}
							}
						}
					}
					JOINT right_clavicle
					{
						OFFSET	43.2	22.4	-70.8
						CHANNELS 3  Xrotation Yrotation Zrotation
						JOINT right_shoulder
						{
							OFFSET	93.9	-5.79999	48.7
							CHANNELS 3  Xrotation Yrotation Zrotation
							JOINT right_elbow
							{
								OFFSET	291.4	-30.8	15.2
								CHANNELS 3  Xrotation Yrotation Zrotation
								JOINT right_lowarm_twist
								{
									OFFSET	110.7	-3.89999	13.6
									CHANNELS 3  Xrotation Yrotation Zrotation
									JOINT right_hand
									{
										OFFSET	110.7	-3.89999	13.6
										CHANNELS 3  Xrotation Yrotation Zrotation
										JOINT right_ee
										{
											OFFSET	80.8	-5.10001	12.1
											CHANNELS 3  Xrotation Yrotation Zrotation
											End Site
											{
												OFFSET	1	0	0
											}
										}
									}
								}
							}
						}
					}
				}
			}
		}
	}
	JOINT left_hip
	{
		OFFSET	-82.8	-127.5	0.300001
		CHANNELS 3  Xrotation Yrotation Zrotation
		JOINT left_knee
		{
			OFFSET	-28.2	-396.7	2.2
			CHANNELS 3  Xrotation Yrotation Zrotation
			JOINT left_ankle
			{
				OFFSET	-11.7	-411.3	35.4
				CHANNELS 3  Xrotation Yrotation Zrotation
				JOINT left_toes
				{
					OFFSET	0	-60	-88.6
					CHANNELS 3  Xrotation Yrotation Zrotation
					JOINT left_foot_ee
					{
						OFFSET	-22.5	-16.5	-42.2
						CHANNELS 3  Xrotation Yrotation Zrotation
						End Site
						{
							OFFSET	1	0	0
						}
					}
				}
			}
		}
	}
	JOINT right_hip
	{
		OFFSET	82.8	-127.5	0.300001
		CHANNELS 3  Xrotation Yrotation Zrotation
		JOINT right_knee
		{
			OFFSET	28.2	-396.7	2.2
			CHANNELS 3  Xrotation Yrotation Zrotation
			JOINT right_ankle
			{
				OFFSET	11.7	-411.3	35.4
				CHANNELS 3  Xrotation Yrotation Zrotation
				JOINT right_toes
				{
					OFFSET	0	-60	-88.6
					CHANNELS 3  Xrotation Yrotation Zrotation
					JOINT right_foot_ee
					{
						OFFSET	22.5	-16.5	-42.2
						CHANNELS 3  Xrotation Yrotation Zrotation
						End Site
						{
							OFFSET	1	0	0
						}
					}
				}
			}
		}
	}
}
MOTION
Frames: 12
Frame Time: 0.02
955.979 709.112 -1118.9 174.103 -57.7941 176.578 -5.72731 -0.369526 -2.08396 -5.72492 -0.236199 -2.10324 -5.7112 0.419776 -2.07442 -5.7172 0.0869675 -2.11466 3.53174 19.4602 5.77334 4.42419 28.9959 7.48396 -0.0 0.0 -0.0 9.27274 15.9663 16.8501 6.13786 -40.0415 56.957 2.26967 -48.3428 1.01877 6.08712 0.174353 -0.757632 7.04254 -9.1747 49.317 -0.0 0.0 -0.0 5.22044 7.72934 -9.77398 -33.1531 48.3808 -41.5815 0.415437 11.6291 -0.0423051 -26.7753 1.66666 -2.95851 -8.0236 -12.9367 53.3599 0.0 0.0 0.0 -21.0992 0.900633 4.57199 -11.6182 0.301351 1.75449 41.3728 15.8061 -5.06708 -3.4107 0.0 0.0 -0.0 0.0 -0.0 30.9249 42.4931 -10.1114 -7.33841 -0.231853 -1.1016 -3.10889 -19.0768 -0.46598 0.406926 -0.0 -0.0 0.0 0.0 0.0 
982.72 703.613 -1101.17 173.054 -59.5853 175.88 -5.76292 -0.487735 -2.18742 -5.76032 -0.34759 -2.21401 -5.74103 0.348793 -2.21382 -5.74787 -0.0051249 -2.24111 3.2881 19.2593 5.74149 4.14761 28.7489 7.47922 -0.0 0.0 -0.0 9.48603 15.1498 17.319 5.34539 -39.8875 57.3175 2.25562 -48.1661 1.00829 6.22175 0.177295 -0.77458 7.04637 -9.24539 49.3046 -0.0 0.0 -0.0 5.36836 7.19106 -10.1064 -33.6126 47.9456 -42.3282 0.415012 11.6175 -0.0422196 -26.831 1.67151 -2.96375 -7.96665 -12.5383 53.2043 0.0 0.0 0.0 -21.282 1.26943 4.60647 -14.8136 0.321353 2.2443 41.0575 15.9474 -5.04189 -3.2823 0.0 0.0 -0.0 0.0 -0.0 32.4031 42.3968 -10.8819 -8.6941 -0.259144 -1.30784 -5.41228 -19.2558 -0.815143 0.106696 -0.0 -0.0 0.0 0.0 0.0 
1010.82 715.852 -1086.29 173.236 -60.1482 175.488 -5.7921 -0.473932 -2.05464 -5.78981 -0.342259 -2.08062 -5.77216 0.314035 -2.08506 -5.77822 -0.0191268 -2.10848 3.68485 18.7877 5.79286 4.50389 27.7425 7.47383 -0.0 0.0 -0.0 9.33591 14.3619 17.1558 2.6803 -39.54 58.1466 2.23105 -47.8542 0.990028 6.64539 0.186292 -0.827948 7.1523 -11.2944 48.8518 -0.0 0.0 -0.0 5.47953 6.92186 -10.3482 -33.7074 47.5691 -42.7394 0.396687 11.1176 -0.0386076 -26.1642 1.61378 -2.90073 -8.02596 -12.9828 53.3298 0.0 0.0 0.0 -20.6873 1.48001 4.18603 -17.9651 0.314309 2.72771 40.2062 17.5679 -4.99546 -3.41802 0.0 0.0 -0.0 0.0 -0.0 30.7995 42.8807 -10.5573 -10.3194 -0.285419 -1.55584 -6.9744 -19.5404 -1.05412 1.18569 -0.0 -0.0 0.0 0.0 0.0 
1029.61 718.983 -1074.01 171.215 -59.7721 173.27 -5.86671 -0.388405 -2.15035 -5.86417 -0.250818 -2.1707 -5.84918 0.431702 -2.14209 -5.85557 0.0880662 -2.18336 3.96443 18.6381 6.12201 4.76004 27.102 7.81135 -0.0 0.0 -0.0 8.93811 14.4886 16.4511 -0.00993055 -38.6327 58.5607 2.19071 -47.3339 0.960243 7.06563 0.194827 -0.880952 7.25175 -12.665 48.7848 -0.0 0.0 -0.0 5.81672 6.7144 -11.0516 -33.7042 47.4806 -43.0879 0.391277 10.9697 -0.0375713 -25.7016 1.57416 -2.85661 -8.1082 -13.7846 53.259 0.0 0.0 0.0 -18.3623 1.67982 3.42846 -20.1439 0.293901 3.06137 37.3453 19.8258 -4.772 -4.19812 0.0 0.0 -0.0 0.0 -0.0 29.9443 42.7511 -11.1301 -13.0295 -0.313554 -1.97068 -8.06847 -19.9587 -1.22327 1.80518 -0.0 -0.0 0.0 0.0 0.0 
1051.73 717.966 -1055.29 171.439 -59.9876 173.38 -5.68284 -0.299707 -2.1398 -5.68031 -0.162971 -2.15452 -5.66911 0.50371 -2.10117 -5.67523 0.16563 -2.15432 4.06821 19.3136 7.54038 4.87726 27.0143 9.42945 -0.0 0.0 -0.0 8.73004 13.9626 16.1465 -1.60674 -37.6247 58.608 2.10785 -46.232 0.899852 7.66675 0.206359 -0.956872 7.26845 -13.7849 48.0653 -0.0 0.0 -0.0 6.02655 6.36286 -11.4978 -33.812 47.4339 -43.4224 0.387774 10.8738 -0.0369077 -25.6009 1.56558 -2.84696 -8.13594 -14.1334 53.1307 0.0 0.0 0.0 -17.139 1.76168 3.11781 -25.5911 0.187535 3.89018 35.4088 21.2141 -4.60842 -4.27398 0.0 0.0 -0.0 0.0 -0.0 29.5157 42.2462 -12.4999 -15.1206 -0.321836 -2.29138 -8.55241 -21.1248 -1.30312 2.24128 -0.0 -0.0 0.0 0.0 0.0 
1072.42 714.632 -1034.23 169.042 -60.0031 172.799 -5.72768 -0.234576 -2.24548 -5.72488 -0.0912522 -2.25585 -5.71592 0.604832 -2.17521 -5.72243 0.253799 -2.24339 3.15864 18.455 8.2478 3.83653 25.2003 10.299 -0.0 0.0 -0.0 8.40587 13.5874 15.6201 -3.68427 -36.0759 57.8575 1.95986 -44.1481 0.794849 8.03301 0.212994 -1.00319 7.29463 -14.5368 47.7194 -0.0 0.0 -0.0 6.20254 6.07862 -11.8704 -33.1357 47.8233 -43.7702 0.440218 12.3022 -0.0474431 -25.5207 1.55877 -2.83927 -8.11969 -14.5923 52.3736 0.0 0.0 0.0 -14.8935 1.62001 2.00169 -29.5678 0.0603792 4.48711 30.903 23.387 -4.17247 -5.43572 0.0 0.0 -0.0 0.0 -0.0 29.2187 41.1676 -14.3849 -18.9532 -0.306626 -2.87913 -6.63084 -22.2076 -1.01183 2.58265 -0.0 -0.0 0.0 0.0 0.0 
1085.51 716.251 -1020.25 167.481 -59.6271 170.757 -5.73354 -0.360554 -2.2051 -5.73086 -0.219543 -2.22356 -5.71677 0.472756 -2.1838 -5.72341 0.122022 -2.23103 2.71053 17.3463 7.38324 3.30062 24.1351 9.33216 -0.0 0.0 -0.0 8.39612 12.8341 15.6707 -5.02612 -33.7676 58.3873 1.75201 -40.9508 0.654235 9.51124 0.236762 -1.19051 7.39408 -16.4216 47.1331 -0.0 0.0 -0.0 6.68665 8.25887 -12.7963 -32.7166 47.9214 -43.5631 0.449324 12.5486 -0.0494022 -24.2386 1.45125 -2.71503 -8.30719 -16.8224 51.5503 0.0 0.0 0.0 -11.2293 1.22822 2.09512 -36.6157 -0.265615 5.51867 27.5215 24.6463 -3.80783 -6.57789 0.0 0.0 -0.0 0.0 -0.0 34.7198 41.9104 -21.4783 -31.7136 0.0253746 -4.80523 3.66236 -26.2542 0.558255 3.35608 -0.0 -0.0 0.0 0.0 0.0 
1109.23 719.164 -1005.85 167.036 -58.8038 169.99 -5.825 -0.20457 -1.92922 -5.82293 -0.0814176 -1.93833 -5.81616 0.520044 -1.86906 -5.82097 0.218392 -1.92771 2.11764 16.6443 7.33935 2.63926 23.113 9.3072 -0.0 0.0 -0.0 8.29165 12.4708 15.5181 -6.39067 -31.4111 58.3871 1.59752 -38.354 0.55563 10.4102 0.248849 -1.3047 7.4169 -17.2524 46.6567 -0.0 0.0 -0.0 7.01092 9.23065 -13.4409 -32.2863 48.0963 -43.7014 0.460336 12.8461 -0.0518227 -23.4087 1.38315 -2.63335 -8.49694 -18.4336 51.4207 0.0 0.0 0.0 -9.73196 0.1788 0.309305 -43.023 -0.670203 6.4162 25.3486 26.3065 -3.57918 -7.4521 0.0 0.0 -0.0 0.0 -0.0 37.9304 41.1105 -24.6893 -39.8784 0.459047 -5.98125 11.3189 -27.979 1.70594 3.90392 -0.0 -0.0 0.0 0.0 0.0 
1138.06 723.084 -989.071 164.484 -58.5618 168.613 -6.04872 -0.0120336 -1.74226 -6.04704 0.0988383 -1.7395 -6.04714 0.636812 -1.62179 -6.05062 0.372729 -1.70198 1.55838 16.0617 7.39371 2.02585 22.1988 9.38624 -0.0 0.0 -0.0 8.15893 12.6739 15.2683 -8.20381 -29.3289 58.2104 1.45581 -35.7957 0.470176 10.952 0.255268 -1.37361 7.42953 -17.7977 46.3176 -0.0 0.0 -0.0 7.2518 10.0007 -13.9208 -31.2684 48.6064 -43.9021 0.50113 13.9418 -0.0612728 -22.8302 1.3364 -2.57585 -8.63596 -19.5609 51.3315 0.0 0.0 0.0 -7.4822 -0.628632 -0.829274 -47.5055 -1.01192 7.01512 23.4449 27.4079 -3.36257 -8.20271 0.0 0.0 -0.0 0.0 -0.0 37.4577 40.2036 -27.2391 -44.7578 0.79686 -6.6511 16.6419 -28.9353 2.47854 4.28078 -0.0 -0.0 0.0 0.0 0.0 
1154.82 722.501 -974.392 161.377 -58.1974 165.808 -6.27886 0.137121 -1.49529 -6.27764 0.231982 -1.48354 -6.28186 0.688886 -1.33425 -6.28404 0.469544 -1.42628 1.19145 15.6572 7.41787 1.62507 21.5648 9.41994 -0.0 0.0 -0.0 8.1683 12.9259 15.2641 -9.47021 -27.8624 58.4524 1.35931 -33.953 0.41499 11.3311 0.259372 -1.42186 7.4386 -18.171 46.0874 -0.0 0.0 -0.0 7.44304 10.4964 -14.308 -30.4438 49.0346 -44.2007 0.530042 14.7121 -0.0684275 -22.4274 1.30419 -2.53553 -8.73671 -20.3546 51.2656 0.0 0.0 0.0 -5.25793 -1.29789 -1.57539 -50.3998 -1.25717 7.38716 22.1061 28.1446 -3.2046 -8.73968 0.0 0.0 -0.0 0.0 -0.0 36.6624 39.644 -29.1402 -47.9356 1.04717 -7.07117 20.2865 -29.4864 2.99081 4.51855 -0.0 -0.0 0.0 0.0 0.0 
1169.34 722.784 -964.06 159.542 -57.7971 164.211 -6.32151 0.267559 -1.39355 -6.3205 0.355684 -1.37371 -6.32785 0.772506 -1.19033 -6.32937 0.574838 -1.29737 0.988823 15.4134 7.46837 1.40354 21.1453 9.47596 -0.0 0.0 -0.0 8.05587 13.1293 15.0516 -10.6045 -26.7522 58.4885 1.27872 -32.3504 0.370917 11.5966 0.262056 -1.45567 7.44361 -18.4184 45.9248 -0.0 0.0 -0.0 7.72965 11.0804 -14.8972 -29.0782 49.8395 -44.8482 0.562084 15.5595 -0.0767941 -22.176 1.28422 -2.51025 -8.8133 -20.9295 51.2379 0.0 0.0 0.0 -3.12072 -2.15448 -2.40805 -52.4204 -1.43944 7.63943 21.1834 28.4852 -3.0899 -9.1172 0.0 0.0 -0.0 0.0 -0.0 34.8295 39.6681 -29.7933 -49.2678 1.159 -7.2431 22.6515 -29.5253 3.30785 4.63512 -0.0 -0.0 0.0 0.0 0.0 
1183.75 725.007 -948.449 160.274 -58.3424 165.201 -5.95229 0.16958 -1.18319 -5.95154 0.24452 -1.17001 -5.95559 0.595781 -1.03623 -5.95684 0.424661 -1.11731 1.58906 15.3349 7.2988 2.01146 20.9748 9.23206 -0.0 0.0 -0.0 7.99969 12.9364 14.9692 -12.2502 -25.2592 58.5185 1.02827 -26.9926 0.246803 11.6402 0.262482 -1.46122 7.88109 -20.7379 47.9065 -0.0 0.0 -0.0 7.69863 12.2759 -14.781 -26.0376 51.7389 -44.6277 0.585985 16.1871 -0.0833314 -22.1036 1.2785 -2.50296 -8.73497 -20.9627 50.3852 0.0 0.0 0.0 -1.92789 -2.84291 -3.78027 -52.4058 -1.43808 7.63762 21.0578 27.6034 -3.05513 -9.29654 0.0 0.0 -0.0 0.0 -0.0 30.7084 39.5793 -27.8062 -44.7509 0.796338 -6.65016 21.3968 -27.4852 3.09753 3.84618 -0.0 -0.0 0.0 0.0 0.0 
